<svg width="385" height="464" viewBox="0 0 385 464" fill="none" xmlns="http://www.w3.org/2000/svg">
<path d="M157.202 287.957C150.25 252.824 68.1755 223.644 37.5429 219.072C35.4715 221.068 36.1362 227.243 36.0143 231.069C67.9784 245.624 118.153 274.604 146.323 286.737C150.559 287.335 152.401 287.66 157.202 287.957Z" fill="#DEB260"/>
<path d="M164.492 288.339C162.405 266.79 284.998 231.556 302.499 232.352C308.085 232.606 314.5 238.172 318.466 241.514C280.964 253.22 209.995 278.159 176.993 287.83C172.117 288.143 169.993 288.339 164.492 288.339Z" fill="#FFE3AE"/>
<path d="M153.968 288.376C157.117 267.366 50.9971 226.13 35.4945 225.955C30.5462 225.899 24.5443 231.005 20.8394 234.063C53.2459 247.587 114.404 275.912 142.96 287.194C147.247 287.768 149.111 288.076 153.968 288.376Z" fill="#FFE3AE"/>
<mask id="path-11-inside-1_524_1186" fill="white">
<path d="M144.147 284.57C145.318 286.543 153.312 288.069 163 288.069C172.042 288.069 179.608 286.739 181.528 284.958L182 284.963V428.069C182 430.278 173.493 432.069 163 432.069C152.507 432.069 144 430.278 144 428.069V284.569L144.147 284.57Z"/>
</mask>
<path d="M144.147 284.57C145.318 286.543 153.312 288.069 163 288.069C172.042 288.069 179.608 286.739 181.528 284.958L182 284.963V428.069C182 430.278 173.493 432.069 163 432.069C152.507 432.069 144 430.278 144 428.069V284.569L144.147 284.57Z" fill="#C63736"/>
<path d="M144.147 284.57L146.727 283.039L145.862 281.582L144.167 281.57L144.147 284.57ZM181.528 284.958L181.559 281.958L180.364 281.946L179.488 282.758L181.528 284.958ZM182 284.963H185V281.994L182.031 281.963L182 284.963ZM144 284.569L144.02 281.569L141 281.549V284.569H144ZM144.147 284.57L141.568 286.101C142.034 286.887 142.693 287.428 143.245 287.791C143.821 288.171 144.469 288.481 145.123 288.74C146.432 289.256 148.048 289.675 149.828 290.008C153.407 290.678 158.018 291.069 163 291.069V288.069V285.069C158.294 285.069 154.065 284.697 150.932 284.111C149.356 283.816 148.148 283.483 147.326 283.159C146.915 282.997 146.671 282.864 146.548 282.783C146.4 282.685 146.554 282.747 146.727 283.039L144.147 284.57ZM163 288.069V291.069C167.653 291.069 171.978 290.728 175.438 290.139C177.165 289.845 178.734 289.48 180.047 289.04C181.274 288.63 182.607 288.049 183.568 287.158L181.528 284.958L179.488 282.758C179.49 282.757 179.156 283.011 178.142 283.351C177.214 283.662 175.966 283.963 174.431 284.224C171.368 284.746 167.388 285.069 163 285.069V288.069ZM181.528 284.958L181.497 287.958L181.969 287.963L182 284.963L182.031 281.963L181.559 281.958L181.528 284.958ZM182 284.963H179V428.069H182H185V284.963H182ZM182 428.069H179C179 427.311 179.379 426.871 179.463 426.785C179.536 426.709 179.491 426.781 179.17 426.941C178.539 427.255 177.432 427.622 175.817 427.962C172.636 428.632 168.103 429.069 163 429.069V432.069V435.069C168.39 435.069 173.357 434.612 177.053 433.833C178.877 433.45 180.552 432.955 181.844 432.312C182.484 431.993 183.186 431.563 183.765 430.966C184.355 430.359 185 429.38 185 428.069H182ZM163 432.069V429.069C157.897 429.069 153.364 428.632 150.183 427.962C148.568 427.622 147.461 427.255 146.83 426.941C146.509 426.781 146.464 426.709 146.537 426.785C146.621 426.871 147 427.311 147 428.069H144H141C141 429.38 141.645 430.359 142.235 430.966C142.814 431.563 143.516 431.993 144.156 432.312C145.448 432.955 147.123 433.833C152.643 434.612 157.61 435.069 163 435.069V432.069ZM144 428.069H147V284.569H144H141V428.069H144ZM144 284.569L143.98 287.569L144.128 287.57L144.147 284.57L144.167 281.57L144.02 281.569L144 284.569Z" fill="#B92B2A" mask="url(#path-11-inside-1_524_1186)"/>
<path d="M13.1934 238.053C12.1249 232.09 18.2011 227.386 23.7061 229.914L144.5 285.39V427.332L43.5381 387.247C41.1265 386.29 39.3806 384.154 38.9229 381.6L13.1934 238.053Z" fill="#DC3938" stroke="#B92B2A"/>
<path d="M329.5 248.998C329.5 243.925 324.569 240.316 319.733 241.849L181.5 285.676V427.419L323.917 389.765C327.208 388.895 329.5 385.917 329.5 382.514V248.998Z" fill="#DC3938" stroke="#B92B2A"/>
</svg>
