<svg width="385" height="464" viewBox="0 0 385 464" fill="none" xmlns="http://www.w3.org/2000/svg">
<path d="M108.208 414.091C125.708 414.091 125.208 413.591 126.208 420.5C131.208 422.5 142.208 427 142.208 427L154.208 431.5C154.208 431.5 127.708 463.481 108.208 463.481L108.208 432.499V414.091Z" fill="#FFC31C"/>
<path d="M379.289 327.458C362.779 394.205 305.92 415 210.629 415C115.338 415 47.2965 396.988 34.6944 327.458C23.064 254.144 60.3835 58.3232 202.875 54.0653C351.367 49.6281 392.86 272.591 379.289 327.458Z" fill="#FFC31C"/>
<ellipse cx="39.642" cy="39.6421" rx="39.642" ry="39.6421" transform="matrix(-0.956304 -0.292372 0.292371 -0.956305 153.528 217)" fill="#F8F8FA"/>
<ellipse cx="39.642" cy="39.642" rx="39.642" ry="39.642" transform="matrix(-0.956304 -0.292372 0.292371 -0.956305 251.527 217)" fill="#F8F8FA"/>
<path d="M305.515 3.63991C246.426 3.78108 233.771 61.3329 233.771 61.3329L256.186 63.7177C256.186 63.7177 261.721 26.4544 304.252 28.6048C320.656 29.4342 323.347 36.4531 335.34 40.1881C347.333 43.923 364.603 3.49874 305.515 3.63991Z" fill="#FFC31C"/>
<path d="M242.208 413.499C266.708 411.499 283.708 408.5 283.708 408.5C283.708 408.5 277.655 421.611 272.208 428.998C266.76 436.385 243.208 463 223.708 463V430.498V416.498C232.708 414.999 233.708 414.999 242.208 413.499Z" fill="#FFC31C"/>
<path d="M242.708 428C242.708 437.665 242.708 463.999 222.708 463C203.731 462.053 201.708 437.665 201.708 428C201.708 418.335 202.708 390.001 222.708 390C242.708 389.999 242.708 418.335 242.708 428Z" fill="#FFC31C"/>
<path d="M126.708 428C126.708 437.665 126.708 463.999 106.708 463C87.7314 462.053 85.7078 437.665 85.7078 428C85.7078 418.335 86.7078 390.001 106.708 390C126.708 389.999 126.708 418.335 126.708 428Z" fill="#FFC31C"/>
</svg>
