<svg width="385" height="464" viewBox="0 0 385 464" fill="none" xmlns="http://www.w3.org/2000/svg">
<path d="M349.511 319.011C340.704 322.991 316.707 333.835 309.381 315.198C302.43 297.515 323.82 285.629 332.627 281.648C341.435 277.668 367.666 266.912 375.904 285.137C384.141 303.362 358.319 315.031 349.511 319.011Z" fill="#FFC31C"/>
<path d="M13.2077 313.5C15.7202 320 31.6409 329.834 38.967 311.198C45.9182 293.515 26.9662 282.004 20.4664 283.005C20.2076 281.5 20.2076 281.5 19.2076 276C16.2956 277.286 10.8493 284.145 9.96617 291.504C8.46605 304.004 10.6952 307 13.2077 313.5Z" fill="#FFC31C"/>
</svg>
